<svg width="18" height="17" viewBox="0 0 18 17" fill="none" xmlns="http://www.w3.org/2000/svg">
<path fill-rule="evenodd" clip-rule="evenodd" d="M15.7968 11.2481C15.4412 10.9685 15.0275 10.7717 14.5858 10.672C14.1442 10.5724 13.6858 10.5724 13.2442 10.6722C12.5858 10.945 12.1604 11.9857 11.7349 12.5111C11.6434 12.6355 11.509 12.7219 11.3576 12.7536C11.2062 12.7853 11.0484 12.7601 10.9144 12.6829C8.48748 11.741 6.45217 10.0065 5.14065 7.76232C5.07884 7.69059 5.03208 7.6072 5.00315 7.51712C4.97421 7.42705 4.96367 7.33209 4.97217 7.23789C4.98067 7.14368 5.00804 7.05215 5.05264 6.96867C5.09723 6.8852 5.15815 6.81151 5.23181 6.75194C5.71136 6.28335 6.06044 5.69835 6.24475 5.05447C6.28524 4.35038 6.12361 3.64938 5.7788 3.0337C5.50785 2.16214 4.99089 1.38692 4.28978 0.800757C3.92945 0.634362 3.52804 0.577253 3.13544 0.636533C2.74284 0.695812 2.37638 0.868853 2.08157 1.13417C1.57192 1.57107 1.16715 2.11658 0.897153 2.73041C0.627157 3.34424 0.498826 4.01071 0.521627 4.68063C0.527603 5.05852 0.575143 5.43463 0.663423 5.80217C0.897239 6.68355 1.26262 7.52484 1.74728 8.29782C2.09345 8.89078 2.47218 9.46418 2.88177 10.0155C4.20581 11.8303 5.87091 13.3711 7.78441 14.5521C8.73776 15.1522 9.75747 15.6405 10.8232 16.007C11.9356 16.5115 13.1649 16.7036 14.3787 16.5628C15.0724 16.4573 15.7297 16.1839 16.293 15.7665C16.8563 15.349 17.3085 14.8002 17.61 14.1682C17.787 13.7863 17.8401 13.3589 17.7619 12.9456C17.6302 12.1575 16.4856 11.6523 15.7968 11.2481Z" fill="#00D95F"/>
</svg>
