<svg width="36" height="36" viewBox="0 0 36 36" fill="none" xmlns="http://www.w3.org/2000/svg">
<path d="M0 35.9899L2.58299 26.3609C0.699336 22.9489 -0.00767012 19.0138 0.570801 15.1616C1.14927 11.3094 2.98114 7.7537 5.78439 5.04191C8.58764 2.33013 12.2068 0.612636 16.0847 0.153905C19.9625 -0.304825 23.8841 0.520644 27.2454 2.50319C30.6068 4.48573 33.2217 7.51543 34.6874 11.1258C36.1532 14.7362 36.3885 18.727 35.3572 22.4839C34.3258 26.2408 32.0851 29.5554 28.9799 31.9173C25.8747 34.2792 22.0772 35.5575 18.1722 35.5554C15.2111 35.5486 12.298 34.8092 9.69384 33.4033L0 35.9899ZM10.1294 29.7962L10.7372 30.16C13.787 31.9838 17.4006 32.631 20.896 31.9794C24.3914 31.3277 27.5267 29.4224 29.7103 26.6229C31.8938 23.8235 32.9745 20.3236 32.7484 16.7839C32.5222 13.2441 31.0049 9.9094 28.4828 7.40908C25.9606 4.90875 22.6082 3.41579 19.0582 3.21201C15.5081 3.00822 12.0061 4.1077 9.21306 6.30292C6.42002 8.49814 4.52917 11.6372 3.89743 15.1278C3.26568 18.6183 3.93672 22.2187 5.7839 25.2495L6.15868 25.8658L4.77095 31.2411L10.1294 29.7962Z" fill="#00D95F"/>
</svg>
